# xmcd
#
# Track frame offsets: 
#        150
#        13007
#        25097
#        38825
#        53123
#        67016
#        78891
#        91667
#        106023
#        120503
#        134068
#        144228
#        156480
#        168508
#        180066
#        193335
#        207307
#        221992
#        235826
#        248281
#        264375
#
# Disc length: 3732 seconds
#
# Revision: 5
# Processed by: cddbd v1.5.2PL0 Copyright (c) Steve Scherf et al.
# Submitted via: ExactAudioCopy v0.99pb4
#
DISCID=190e9215
DTITLE=Fats Waller - Lonesome Road  [CD 5-10]
DYEAR=2005
DGENRE=Jazz, Swing
TTITLE0=Water Boy
TTITLE1=Lonesome Road  (1938-39)
TTITLE2=That Old Feeling
TTITLE3=I Can't Give You Anything But Love
TTITLE4=Two Sleepy People
TTITLE5=Shame! Shame!
TTITLE6=I'll Never Forgive Myself
TTITLE7=You Look Good To Me
TTITLE8=Tell Me With Your Kisses
TTITLE9=Yacht Club Swing
TTITLE10=Love, I'd Give My Life For You
TTITLE11=I Wish I Had You
TTITLE12=I'll Dance At Your Wedding
TTITLE13=Imagine My Surprise
TTITLE14=I Won't Believe It
TTITLE15=The Spider And The Fly
TTITLE16=Patty Cake, Patty Cake
TTITLE17=A Good Man Is Hard To Find
TTITLE18=You Out - Smarted Yourself
TTITLE19=Last Night A Miracle Happened
TTITLE20=Good For Nothin' But Love
EXTD=
EXTT0=
EXTT1=
EXTT2=
EXTT3=
EXTT4=
EXTT5=
EXTT6=
EXTT7=
EXTT8=
EXTT9=
EXTT10=
EXTT11=
EXTT12=
EXTT13=
EXTT14=
EXTT15=
EXTT16=
EXTT17=
EXTT18=
EXTT19=
EXTT20=
PLAYORDER=
